<svg width="434" height="330" viewBox="0 0 434 330" fill="none" xmlns="http://www.w3.org/2000/svg">
<g clip-path="url(#clip0_3157_787)">
<ellipse cx="324.502" cy="348" rx="104.5" ry="19" fill="#1E1240" fill-opacity="0.1"/>
<path d="M236.762 23.7894C240.751 21.4486 241.656 13.2339 236.4 11.4226C231.143 9.61124 227.462 10.7514 227.462 10.7514C227.462 10.7514 229.39 7.08701 228.291 4.37728C227.191 1.66754 221.431 6.25325 221.431 6.25325C221.431 6.25325 222.826 2.43669 220.871 0.546128C218.916 -1.34443 211.854 1.72174 208.829 7.37883C208.829 7.37883 203.912 2.10527 198.126 5.26732C192.341 8.42937 181.551 22.372 187.623 23.4601C193.696 24.5481 232.771 26.1302 236.762 23.7894Z" fill="url(#paint0_linear_3157_787)"/>
<path d="M187.624 23.4726C185.628 23.114 185.455 21.3694 186.325 19.0724C189.325 17.0005 193.889 15.7165 196.897 14.8577C201.856 13.4445 206.453 11.1599 209.596 11.9208C212.74 12.6816 211.866 17.0713 211.866 17.0713C211.866 17.0713 221.299 7.67689 223.637 9.63624C225.974 11.5956 222.689 15.729 222.689 15.729C222.689 15.729 231.298 14.2053 233.961 17.7675C235.707 20.1042 234.952 22.8327 234.227 24.4377C224.48 25.7863 193.021 24.4397 187.624 23.4726Z" fill="url(#paint1_linear_3157_787)"/>
<path d="M68.2838 14.3012C77.4815 8.67324 80.3587 20.2834 80.3587 20.2834C80.3587 20.2834 83.5794 13.2173 98.4814 9.81342C113.383 6.40957 106.784 23.5976 106.784 23.5976C106.784 23.5976 110.923 16.4898 114.233 16.5106C117.543 16.5315 117.949 19.6831 117.949 19.6831C117.949 19.6831 128.017 15.0474 135.301 22.9056C138.326 26.1698 140.602 39.4329 124.653 41.04C96.614 43.8748 71.1485 39.5455 64.0098 36.2271C56.871 32.9087 59.084 19.927 68.2838 14.3012Z" fill="url(#paint2_linear_3157_787)"/>
<path d="M39.9276 57.7382C31.8874 54.151 29.0373 59.46 29.0373 59.46C29.0373 59.46 24.4968 52.4355 16.2609 52.6564C8.02496 52.8774 1.1506 59.2453 0.0638657 69.7882C-1.18526 81.8778 16.6606 79.3411 25.5419 78.2155C34.4231 77.0899 40.9165 77.4818 43.9831 71.3974C46.344 66.7158 45.1698 60.0853 39.9276 57.7382Z" fill="url(#paint3_linear_3157_787)"/>
<path d="M425.794 108.998C413.155 103.358 408.673 111.708 408.673 111.708C408.673 111.708 401.532 100.66 388.583 101.011C375.633 101.361 364.822 111.37 363.115 127.948C361.154 146.964 389.209 142.968 403.174 141.198C417.14 139.428 427.339 140.041 432.171 130.484C435.874 123.105 434.036 112.677 425.794 108.998Z" fill="url(#paint4_linear_3157_787)"/>
<path d="M386.055 177.006C386.055 177.006 405.39 174.536 410.607 174.276C415.824 174.015 431.932 182.34 431.932 200.81H342.815C342.815 200.81 373.568 177.657 386.055 177.006Z" fill="#E8CAFF"/>
<path d="M410.607 174.276C410.607 174.276 369.963 177.138 359.679 223.703C357.441 233.831 353.955 246.707 350.273 259.457C345.923 274.504 336.809 287.728 324.302 297.138C311.795 306.548 296.572 311.635 280.927 311.632H160.056C160.056 311.632 186.481 234.376 206.913 194.726C210.089 188.563 214.899 183.395 220.814 179.788C226.73 176.181 233.523 174.274 240.45 174.276H410.607Z" fill="#FDF5FF"/>
<path d="M68.6536 309.879C68.6536 309.879 55.3545 303.734 51.9278 301.817C48.501 299.899 41.5559 288.168 48.9132 276.401L105.68 311.982C105.68 311.982 76.8666 314.45 68.6536 309.879Z" fill="#EEDEFE"/>
<path d="M48.9129 276.404L78.9939 311.63H235.518C233.205 311.213 231.237 310.644 229.857 309.875C229.857 309.875 216.556 303.73 213.129 301.812C209.702 299.895 202.759 288.164 210.115 276.399L48.9129 276.404Z" fill="#EEE4F8"/>
<path d="M326.784 103.71C326.784 103.71 326.284 101.1 329.318 100.823C332.351 100.546 336.015 101.38 336.015 104.039C336.01 105.014 335.955 105.988 335.851 106.957C335.789 107.585 335.881 108.219 336.118 108.803C336.355 109.388 336.731 109.906 337.212 110.313C337.889 110.899 338.551 111.683 338.721 112.594C338.919 113.648 338.461 114.995 337.974 116.048C337.737 116.55 337.613 117.099 337.611 117.654C337.609 118.21 337.728 118.759 337.962 119.264C338.502 120.366 338.779 121.579 338.769 122.807C338.696 125.617 333.69 128.125 330.527 127.441C327.365 126.757 328.907 120.198 329.971 118.686C329.971 118.686 326.986 113.344 327.39 110.734C327.794 108.125 326.784 103.71 326.784 103.71Z" fill="#1E1240"/>
<path d="M318.224 103.885C318.224 103.885 321.78 101.982 325.221 102.589C328.663 103.195 329.801 106.653 329.146 112.016C328.49 117.38 324.378 119.754 320.348 119.456C316.317 119.158 313.833 106.826 318.224 103.885Z" fill="#311E69"/>
<path d="M310.637 126.545C303.307 128.838 294.984 155.27 294.984 155.27C294.984 155.27 257.058 187.924 261.703 191.91C266.347 195.895 312.419 173.661 315.702 152.533C318.986 131.406 317.233 124.477 310.637 126.545Z" fill="#AD7BC4"/>
<path d="M342.932 239.651C340.017 238.655 344.783 196.116 344.982 192.373C346.217 169.365 333.324 163.322 331.419 156.541C329.144 148.412 344.666 139.658 336.538 129.15C333.03 124.621 313.958 120.444 309.193 126.222C308.023 127.641 303.326 131.247 302.739 133.886C301.511 139.399 305.2 145.544 305.135 152.742C305.098 156.998 300.541 165.015 298.398 169.936C294.235 179.524 290.968 185.175 289.03 206.597C286.542 234.18 294.718 270.932 317.04 306.231C318.224 308.107 323.587 306.44 323.587 306.44C323.795 303.576 320.179 262.459 311.733 247.659C308.654 242.263 313.248 197.827 314.568 198.028C315.511 198.169 306.241 266.038 372.172 271.687L374.227 266.121C374.227 266.121 360.438 245.648 342.932 239.651Z" fill="#C8A9E0"/>
<path d="M300.887 21.8363L282.151 40.9003L287.643 25.8926L286.25 26.3928C268.554 32.744 254.324 49.8987 239.447 76.6834C224.57 103.468 224.381 160.662 224.381 160.662L236.014 180.758L224.961 172.716C227.376 197.677 245.734 226.453 245.734 226.453C245.734 226.453 248.782 231.624 252.396 232.541C256.831 233.667 272.501 227.841 277.949 224.281C282.502 221.304 290.507 183.17 294.636 162.486C295.166 159.826 277.273 175.122 277.66 173.152C277.868 172.11 296.409 153.507 296.568 152.704C298.164 144.594 301.772 128.462 305.264 113.125L281.83 124.506L307.462 103.562C310.88 88.6605 313.708 76.5313 313.708 76.5313L291.176 84.452L327.554 60.5063C327.554 60.5063 349.56 40.5231 343.874 26.322C338.603 13.1651 307.529 20.3355 300.887 21.8363Z" fill="#EEDEFE"/>
<path d="M265.104 88.7188L297.115 66.6616L264.567 83.1806L265.104 88.7188Z" fill="#E8CAFF"/>
<path d="M259.066 111.568L299.969 89.9737L257.738 120.285L259.066 111.568Z" fill="#E8CAFF"/>
<path d="M265.401 81.0461L273.008 49.238C273.008 49.238 259.792 78.5824 263.277 87.2348C263.277 87.2348 265.424 86.0508 265.401 81.0461Z" fill="#E8CAFF"/>
<path d="M270.601 227.966C270.601 227.966 265.449 215.614 266.746 204.729C268.043 193.844 265.326 154.959 264.468 139.333C263.61 123.706 264.408 125.538 268.665 107.629C272.923 89.7194 268.713 82.499 280.359 68.0603C292.005 53.6215 324.287 33.7154 308.01 38.4282C291.734 43.1411 278.469 59.3578 278.469 59.3578C278.469 59.3578 268.076 72.6043 263.662 91.2222C259.249 109.84 255.807 141.248 255.982 145.188C256.157 149.127 256.243 192.9 258.031 200.875C259.819 208.85 260.756 227.201 262.082 229.125C263.408 231.049 263.912 230.586 270.601 227.966Z" fill="#E8CAFF"/>
<path d="M255.881 142.526L243.409 90.8887L256.855 132.583L255.881 142.526Z" fill="#E8CAFF"/>
<path d="M261.677 233.098C258.291 221.021 256.795 208.233 255.585 195.772C254.352 183.02 253.609 170.174 253.615 157.359C253.628 132.471 256.357 106.778 264.622 83.1868C268.651 71.7038 274.234 61.1504 283.126 52.7232C289.671 46.5199 277.938 60.2646 272.446 71.2327C266.954 82.2009 263.733 94.3697 261.445 106.382C256.676 131.453 256.405 157.033 258.346 182.403C259.314 195.066 260.79 207.712 263.205 220.187C264.358 226.165 265.965 232.033 267.339 237.963C268.786 244.195 270.193 250.44 271.461 256.712C271.955 259.151 272.456 261.598 272.8 264.062C272.85 264.416 273.287 266.613 272.738 266.5C272.021 266.352 271.159 262.957 270.955 262.405C269.956 259.653 269.044 256.87 268.145 254.086C266.271 248.283 264.483 242.451 262.732 236.612C262.377 235.441 262.025 234.269 261.677 233.098Z" fill="white"/>
<path d="M301.307 130.714L280.769 143.426L276.166 146.276L299.537 138.72L301.307 130.714Z" fill="#E8CAFF"/>
<path d="M323.738 115.743L323.984 125.169C324.02 126.72 320.258 130.759 317.784 128.829C317.062 128.264 317.972 126.119 318.617 124.498L320.349 116.369L323.738 115.743Z" fill="#C8A9E0"/>
<path d="M319.329 121.2C321.34 120.552 323.326 117.49 323.326 117.49L320.11 117.536L319.329 121.2Z" fill="#311E69"/>
<path d="M342.931 239.651C342.359 239.455 342.086 237.636 342.015 234.836C341.141 238.565 340.835 243.288 343.108 247.263C347.655 255.211 366.792 267.78 372.559 268.256C372.859 268.279 373.162 268.27 373.46 268.226L374.232 266.142C374.232 266.142 360.438 245.648 342.931 239.651Z" fill="#AD7BC4"/>
<path d="M324.229 110.067L324.828 113.68C325.305 116.546 323.5 119.408 320.648 119.933C318.016 120.427 315.458 118.93 315.027 115.599C314.654 112.64 316.732 110.061 317.479 108.721C319.192 105.648 323.235 105.963 324.229 110.067Z" fill="#C8A9E0"/>
<path d="M324.464 112.842C324.653 112.582 324.814 112.302 324.944 112.008C325.203 111.451 325.715 110.689 326.35 111.476C327.272 112.621 325.736 115.501 324.268 115.089C323.167 114.784 323.974 113.488 324.464 112.842Z" fill="#C8A9E0"/>
<path d="M320.315 118.768C319.232 118.809 317.79 118.849 316.505 117.746C315.81 117.15 315.158 115.758 315.021 115.454C315.021 115.508 315.021 115.562 315.033 115.616C315.45 118.951 318.015 120.444 320.654 119.95C321.491 119.784 322.274 119.414 322.935 118.874C323.596 118.334 324.114 117.64 324.443 116.852C322.974 118.247 321.289 118.728 320.315 118.768Z" fill="#AD7BC4"/>
<path d="M321.424 306.409C320.294 307.426 315.718 313.41 314.102 313.573C313.414 313.644 312.718 313.602 312.043 313.448C313.072 312.641 314.2 310.738 315.233 308.666C316.201 306.827 316.696 304.775 316.673 302.696L323.454 304.97C323.454 304.97 323.573 305.256 323.727 305.696C323.085 305.681 322.124 305.783 321.424 306.409Z" fill="#C8A9E0"/>
<path d="M307.878 315.701C308.477 315.136 309.553 314.469 311.463 313.79C311.673 313.708 311.869 313.593 312.043 313.45C312.718 313.604 313.414 313.646 314.102 313.575C315.718 313.412 320.294 307.428 321.424 306.411C322.124 305.785 323.09 305.681 323.714 305.696C324.06 306.686 324.576 308.466 324.297 309.585C323.893 311.203 322.923 315.82 323.086 317.268H321.066V312.091C321.066 312.091 319.532 312.899 318.724 313.79C318.373 314.242 318.093 314.745 317.891 315.282C317.637 315.875 317.214 316.379 316.675 316.732C316.136 317.086 315.504 317.272 314.86 317.268H308.513C308.331 317.269 308.153 317.216 308.002 317.114C307.851 317.013 307.733 316.869 307.665 316.7C307.597 316.531 307.58 316.346 307.618 316.168C307.656 315.99 307.746 315.827 307.878 315.701Z" fill="#EEDEFE"/>
<path d="M374.667 267.812C375.363 269.164 379.978 275.122 379.722 276.727C379.617 277.411 379.399 278.073 379.077 278.686C378.56 277.485 377.009 275.907 375.271 274.382C373.743 272.974 371.887 271.971 369.873 271.463L373.793 265.483C373.793 265.483 374.099 265.439 374.561 265.402C374.397 266.017 374.251 266.976 374.667 267.812Z" fill="#C8A9E0"/>
<path d="M380.2 283.295C379.807 282.569 379.436 281.358 379.267 279.334C379.242 279.109 379.181 278.89 379.086 278.684C379.408 278.071 379.626 277.409 379.732 276.725C379.988 275.12 375.372 269.162 374.677 267.809C374.248 266.976 374.396 266.015 374.571 265.402C375.612 265.321 377.466 265.273 378.476 265.819C379.934 266.623 384.149 268.737 385.588 268.945L385.074 270.901L380.077 269.581C380.077 269.581 380.469 271.274 381.118 272.291C381.463 272.75 381.876 273.153 382.344 273.485C382.851 273.883 383.23 274.421 383.434 275.032C383.638 275.644 383.657 276.302 383.489 276.925L381.874 283.072C381.828 283.247 381.731 283.405 381.595 283.525C381.46 283.645 381.291 283.722 381.112 283.746C380.932 283.77 380.75 283.74 380.587 283.659C380.425 283.579 380.29 283.452 380.2 283.295Z" fill="#EEDEFE"/>
<path d="M323.017 278.686C318.05 279.987 306.65 283.837 300.816 284.353C287.952 256.543 287.076 228.243 289.035 206.605C290.967 185.183 294.223 179.537 298.403 169.944C299.952 166.386 302.754 161.215 304.208 157.021C310.992 157.073 324.044 157.152 331.599 157.085C333.989 163.664 346.189 169.982 344.987 192.389C344.779 196.141 340.026 238.663 342.937 239.668C351.131 242.476 358.513 248.458 364.047 254.027C361.053 257.533 355.174 265.848 348.926 270.405C307.145 253.394 315.408 198.182 314.575 198.057C313.255 197.848 310.874 242.246 313.951 247.641C318.065 254.836 321.079 266.453 323.017 278.686Z" fill="#311E69"/>
<path d="M342.93 239.651C340.016 238.655 344.781 196.116 344.981 192.373C346.182 169.965 333.983 163.647 331.593 157.069C329.236 157.09 326.342 157.096 323.265 157.094C323.452 169.74 324.225 186.315 326.992 192.377C331.69 202.692 328.072 232.224 332.234 239.109C335.109 243.866 334.799 253.894 332.511 259.701C336.87 263.983 342.258 267.674 348.926 270.39C355.172 265.831 361.053 257.517 364.047 254.011C358.507 248.441 351.125 242.459 342.93 239.651Z" fill="#1E1240"/>
<path d="M303.806 170.788C302.432 171.793 301.207 171.858 300.475 170.409C297.818 165.09 300.664 155.212 300.949 153.027C301.116 151.745 300.566 146.13 300.081 141.698C301.175 139.146 302.4 136.651 303.749 134.224C304.917 133.957 306.039 133.951 306.72 134.599C308.604 136.402 310.532 145.713 311.519 153.219C312.133 157.878 308.756 165.417 305.469 169.202C304.932 169.736 304.377 170.265 303.806 170.788Z" fill="#311E69"/>
<path d="M321.844 105.298C321.844 105.298 320.043 103.76 318.359 104.087C315.444 104.652 314.513 108.854 314.403 111.681C314.356 112.696 314.409 113.713 314.561 114.718C314.569 114.772 314.595 114.821 314.636 114.857C314.677 114.893 314.73 114.912 314.784 114.912C314.838 114.912 314.891 114.893 314.932 114.857C314.973 114.821 314.999 114.772 315.007 114.718C315.354 112.775 316.109 110.927 317.222 109.298C318.109 108.004 319.987 107.462 320.921 107.122C322.204 106.666 321.738 105.638 321.844 105.298Z" fill="#311E69"/>
<path d="M297.258 167.157C299.563 162.311 302.706 155.608 302.738 151.981C302.802 144.785 301.509 139.399 302.738 133.886C303.285 131.428 307.395 128.133 308.902 126.545L312.835 134.313L325.886 128.608C326.219 136.387 330.976 143.337 334.334 146.824C332.302 150.201 333.172 153.206 334.047 156.335C334.938 159.52 336.812 162.472 339.953 167.174C338.485 167.737 337.871 169.884 332.979 170.617C331.095 170.899 326.361 169.878 323.983 170.094C321.408 170.328 315.608 172.147 313.055 172.041C304.861 171.683 302.477 167.749 297.258 167.157Z" fill="#AB5FD9"/>
<path d="M334.047 156.331C333.173 153.204 332.302 150.196 334.334 146.82C330.976 143.333 326.215 136.383 325.886 128.604L324.718 129.115C324.41 132.796 323.656 137.321 321.843 140.291C318.339 146.034 311.786 144.846 313.84 150.876C315.112 154.607 317.473 163.743 322.168 170.372C322.766 170.244 323.371 170.148 323.979 170.082C326.357 169.873 331.091 170.886 332.975 170.605C337.867 169.873 338.481 167.724 339.949 167.159C336.812 162.463 334.938 159.512 334.047 156.331Z" fill="#7E37AA"/>
<path d="M335.492 129.252C345.989 134.076 328.882 162.034 318.277 173.717C307.672 185.4 287.919 202.886 281.926 198.853C275.932 194.82 305.824 167.514 308.799 163.718C313.252 158.042 325.72 124.763 335.492 129.252Z" fill="#C8A9E0"/>
<path d="M307.302 129.669C307.389 129.669 307.474 129.65 307.551 129.612C307.629 129.574 307.697 129.519 307.75 129.45L309.505 127.208C309.542 127.157 311.587 124.341 315.809 123.97C315.953 123.949 316.084 123.874 316.174 123.76C316.264 123.645 316.307 123.5 316.295 123.355C316.282 123.21 316.214 123.075 316.105 122.978C315.996 122.881 315.854 122.83 315.709 122.834C310.948 123.251 308.687 126.395 308.591 126.528L306.853 128.748C306.786 128.832 306.745 128.933 306.734 129.039C306.722 129.145 306.741 129.253 306.788 129.349C306.835 129.445 306.907 129.526 306.998 129.583C307.089 129.64 307.193 129.669 307.3 129.669H307.302Z" fill="#AB5FD9"/>
<path d="M324.546 130.98C324.635 130.98 324.723 130.96 324.802 130.92C324.882 130.88 324.951 130.822 325.004 130.751L326.345 128.938C326.734 128.521 328.843 126.113 328.246 124.539C328.219 124.469 328.18 124.405 328.129 124.351C328.078 124.296 328.016 124.252 327.948 124.221C327.88 124.19 327.807 124.173 327.732 124.17C327.657 124.167 327.583 124.18 327.513 124.206C327.443 124.232 327.379 124.272 327.324 124.323C327.27 124.374 327.225 124.436 327.195 124.504C327.164 124.572 327.146 124.645 327.144 124.72C327.141 124.795 327.154 124.87 327.18 124.94C327.434 125.619 326.31 127.295 325.468 128.214L324.09 130.072C324.045 130.131 324.013 130.199 323.994 130.272C323.976 130.344 323.972 130.42 323.983 130.494C323.994 130.568 324.019 130.639 324.058 130.703C324.096 130.767 324.147 130.823 324.207 130.868C324.305 130.942 324.424 130.981 324.546 130.98Z" fill="#AB5FD9"/>
<path d="M316.892 114.755C316.892 114.755 319.241 115.797 320.623 115.743C320.623 115.743 318.791 116.356 318 115.985C317.497 115.719 317.105 115.284 316.892 114.755Z" fill="#EEDEFE"/>
<path d="M282.288 194.911C282.288 194.911 278.9 192.777 276.527 192.577C274.154 192.377 273.467 189.488 272.792 190.753C272.118 192.018 273.771 193.773 274.576 194.269C275.382 194.765 269.544 195.728 269.544 195.728C269.544 195.728 270.806 199.293 274.624 200.191C278.442 201.09 284.603 200.033 285.51 198.853C286.418 197.673 282.288 194.911 282.288 194.911Z" fill="#C8A9E0"/>
<path d="M312.063 248.285C310.813 250.419 310.022 253.973 310.943 259.899C313.183 274.302 318.267 298.092 321.121 302.294C321.785 303.266 322.609 304.118 323.557 304.816C323.132 296.612 319.537 262.19 312.063 248.285Z" fill="#AD7BC4"/>
<path d="M332.99 152.487C332.99 152.487 331.418 160.512 321.332 174.791C316.852 181.135 293.682 195.485 293.682 195.485C293.682 195.485 320.772 164.16 321.846 162.843C322.92 161.525 332.99 152.487 332.99 152.487Z" fill="#1E1240"/>
<path d="M303.954 231.71C304.441 246.526 299.998 262.38 293.986 266.059C295.801 272.32 298.085 278.435 300.816 284.353C306.646 283.837 318.05 279.976 323.018 278.686C321.079 266.453 318.065 254.836 313.951 247.628C311.036 242.523 313.01 202.544 314.351 198.399C312.798 200.889 303.456 216.57 303.954 231.71Z" fill="#1E1240"/>
<path d="M318.276 173.717C328.748 162.184 345.538 134.799 335.861 129.463C335.832 129.88 335.805 130.297 335.774 130.764C335.389 136.86 330.261 146.144 328.573 149.646C326.884 153.148 318.188 166.818 313.252 172.589C308.316 178.361 302.046 183.172 295.461 185.5C290.295 187.326 286.057 195.833 284.468 199.42C292.273 198.995 308.87 184.079 318.276 173.717Z" fill="#AD7BC4"/>
<path d="M106.549 262.443L98.3378 263.726L96.8132 271.22L101.592 270.475L101.745 271.459L92.3776 272.922L92.2241 271.938L95.7889 271.38L101.247 244.413L101.845 244.32L114.853 268.404L118.325 267.861L118.476 268.845L106.161 270.77L106.007 269.786L110.189 269.132L106.549 262.443ZM98.568 262.68L106.066 261.508L100.81 251.713L100.733 251.723L98.568 262.68Z" fill="#311E69"/>
<path d="M59.0401 186.393L45.2869 161.212L41.0451 163.537L40.4794 162.5L53.3259 155.458C56.1676 153.901 58.8198 152.971 61.2824 152.667C63.745 152.363 66.2954 153.016 68.9337 154.626C71.5491 156.212 73.694 158.469 75.1465 161.163C76.7379 164.077 77.4151 167.086 77.1782 170.19C76.9413 173.293 76.073 175.781 74.5731 177.652C73.0723 179.525 70.9283 181.224 68.141 182.75L55.3746 189.747L54.809 188.71L59.0401 186.393ZM50.1073 158.571L63.8693 183.746L67.4002 181.81C69.2549 180.795 70.6742 179.797 71.6583 178.816C72.6423 177.834 73.2062 176.566 73.35 175.012C73.4912 173.453 73.2199 171.727 72.5362 169.832C71.8525 167.937 70.7402 165.58 69.1994 162.762C67.3495 159.375 65.539 157.083 63.768 155.888C61.997 154.692 60.3811 154.236 58.9205 154.519C57.4573 154.802 55.7246 155.493 53.7225 156.59L50.1073 158.571Z" fill="#311E69"/>
<path d="M70.6687 227.711L50.7747 206.002L47.0819 209.395L46.2642 208.503L57.8495 197.858L58.6626 198.75L54.936 202.175L64.1384 212.223L74.271 202.913L65.0685 192.865L61.4114 196.225L60.5918 195.333L72.1069 184.752L72.9272 185.645L69.2343 189.038L89.1283 210.747L92.8212 207.354L93.6394 208.248L82.1283 218.829L81.31 217.934L84.9671 214.574L75.0928 203.798L64.9583 213.108L74.8352 223.886L78.5617 220.461L79.382 221.355L67.7968 231.999L66.9765 231.106L70.6687 227.711Z" fill="#311E69"/>
<path d="M54.0041 115.365L64.789 143.481L71.6077 140.856C72.9209 140.351 73.9177 139.855 74.5982 139.369C75.2786 138.882 75.8401 138.119 76.2826 137.079C76.7294 136.018 76.9555 134.877 76.947 133.725C76.9159 132.102 76.7866 130.483 76.56 128.875L77.6257 128.465L80.5986 138.726L55.0556 148.551L54.6123 147.394L59.3959 145.555L48.6111 117.44L43.83 119.28L43.3847 118.123L58.6146 112.264L59.0579 113.421L54.0041 115.365Z" fill="#311E69"/>
<path d="M133.075 131.3L143.396 135.796L140.704 158.842L140.789 158.879L155.838 141.215L165.894 145.597L165.418 146.692L161.152 144.832L149.599 171.445L153.865 173.305L153.388 174.4L139.844 168.509L140.321 167.414L144.721 169.34L156.498 142.231L156.412 142.192L135.598 166.671L134.61 166.24L138.3 134.297L138.212 134.259L126.436 161.369L130.833 163.283L130.357 164.378L120.553 160.109L121.029 159.013L125.342 160.892L136.903 134.268L132.601 132.397L133.075 131.3Z" fill="#311E69"/>
<path d="M101.956 117.842C97.9987 117.807 94.6554 116.117 91.9259 112.772C89.1963 109.427 87.8462 105.866 87.8754 102.089C87.9162 97.5484 89.3993 93.6881 92.3246 90.5077C95.25 87.3274 98.6304 85.7529 102.466 85.7842C106.07 85.8147 109.289 87.4722 112.122 90.7568C114.955 94.0413 116.353 97.7549 116.316 101.898C116.277 106.163 114.81 109.894 111.915 113.091C109.019 116.289 105.699 117.872 101.956 117.842ZM102.31 86.9452C100.732 86.9067 99.1727 87.2921 97.7939 88.0614C96.4544 88.8186 95.5375 90.1472 95.0432 92.047C94.5488 93.9468 94.2802 97.2659 94.2373 102.005C94.208 105.28 94.3224 107.894 94.5806 109.844C94.8387 111.795 95.5204 113.416 96.6255 114.707C97.7333 115.998 99.4814 116.653 101.87 116.672C103.408 116.666 104.921 116.279 106.274 115.547C107.748 114.783 108.719 113.264 109.188 110.99C109.657 108.716 109.913 105.219 109.956 100.498C109.994 96.2178 109.743 93.2601 109.2 91.6243C108.657 89.9885 107.778 88.8042 106.561 88.0714C105.273 87.3153 103.803 86.9259 102.31 86.9452Z" fill="#311E69"/>
<path d="M169.418 191.607L161.962 197.632L164.282 200.508L163.605 201.053L156.47 192.197L157.144 191.652L159.42 194.476L175.826 181.22L173.55 178.397L174.226 177.851L181.609 187.012C183.274 189.08 184.07 191.008 183.998 192.797C183.925 194.585 183.217 196.025 181.875 197.116C181.225 197.657 180.462 198.047 179.642 198.257C178.822 198.467 177.966 198.491 177.136 198.328C175.353 198.025 173.473 196.645 171.494 194.188L169.418 191.607ZM178.369 184.375L170.106 191.051L171.484 192.762C172.073 193.523 172.751 194.21 173.504 194.808C174.13 195.271 174.938 195.46 175.931 195.375C176.924 195.29 178.091 194.692 179.441 193.6C180.633 192.638 181.358 191.742 181.616 190.913C181.874 190.083 181.86 189.361 181.573 188.747C181.21 188.006 180.758 187.313 180.227 186.682L178.369 184.375Z" fill="#311E69"/>
<path d="M135.663 271.013L134.975 271.942C134.284 271.521 133.616 271.064 132.974 270.572C130.741 268.914 128.928 266.708 127.534 263.952C126.14 261.195 126.546 258.329 128.751 255.352C126.808 252.606 125.88 249.269 126.126 245.912C126.337 242.427 127.408 239.378 129.341 236.765C131.81 233.433 135.124 231.316 139.284 230.415C143.443 229.514 147.062 230.201 150.14 232.477C152.992 234.595 154.667 237.767 155.165 241.995C155.704 246.076 154.606 250.205 152.112 253.477C150.042 256.275 147.232 258.245 143.681 259.39C140.131 260.534 136.863 260.453 133.878 259.149C131.917 261.8 131.03 263.932 131.217 265.547C131.403 267.163 132.885 268.985 135.663 271.013ZM149.478 233.435C148.18 232.456 146.636 231.858 145.018 231.708C143.391 231.558 141.853 232.131 140.404 233.427C138.956 234.723 136.802 237.304 133.943 241.17C132 243.796 130.586 245.924 129.7 247.552C128.814 249.181 128.463 250.817 128.647 252.462C128.832 254.102 129.902 255.648 131.855 257.099C133.314 258.179 134.848 258.728 136.458 258.745C138.068 258.762 139.655 258.038 141.221 256.573C142.785 255.11 144.885 252.597 147.52 249.034C150.045 245.618 151.616 243.07 152.23 241.389C152.845 239.708 152.809 238.159 152.122 236.742C151.523 235.442 150.617 234.306 149.484 233.433L149.478 233.435Z" fill="#311E69"/>
<path d="M151.488 179.868L148.802 188.03L147.707 187.65C147.844 182.233 145.947 178.842 142.016 177.478C139.84 176.719 137.94 176.734 136.317 177.521C134.693 178.308 133.657 179.347 133.208 180.637C132.792 181.836 132.938 183.031 133.645 184.221C134.352 185.412 135.957 186.699 138.458 188.083C140.956 189.468 142.785 190.733 143.946 191.878C145.107 193.023 145.898 194.533 146.318 196.408C146.732 198.339 146.588 200.347 145.904 202.2C144.837 205.266 142.951 207.471 140.246 208.813C137.541 210.155 134.711 210.313 131.758 209.284C129.349 208.446 127.259 206.715 125.489 204.091L122.614 205.288L121.799 205.003L124.84 196.251L125.843 196.599C125.802 199.67 126.365 202.186 127.531 204.146C128.698 206.106 130.26 207.426 132.218 208.107C134.171 208.783 136.298 208.761 138.236 208.045C140.307 207.326 141.683 205.986 142.365 204.024C142.651 203.257 142.777 202.44 142.736 201.622C142.694 200.804 142.485 200.004 142.122 199.27C141.389 197.75 139.833 196.337 137.455 195.028C135.076 193.72 133.31 192.546 132.157 191.506C131.004 190.468 130.19 189.077 129.715 187.334C129.239 185.628 129.302 183.817 129.896 182.149C130.717 179.782 132.29 177.962 134.616 176.689C136.942 175.416 139.541 175.276 142.413 176.271C144.823 177.109 146.804 178.654 148.356 180.906C149.14 180.55 149.867 180.08 150.513 179.511L151.488 179.868Z" fill="#311E69"/>
<path d="M114.614 224.3L96.1356 222.836L96.207 221.918L111.819 200.715L106.14 200.269C104.059 200.106 102.581 200.412 101.705 201.186C100.829 201.96 100.122 203.344 99.5836 205.337L98.7306 205.266L99.6221 198.817L116.915 200.191L116.864 200.839L101.015 222.293L106.91 222.763C108.6 222.896 109.887 222.832 110.768 222.568C111.65 222.305 112.467 221.542 113.219 220.28C113.958 219.063 114.476 217.724 114.75 216.327L115.631 216.396L114.614 224.3Z" fill="#311E69"/>
<path d="M70.8308 94.5696L70.1344 92.8667C69.5662 91.4756 69.078 90.6077 68.6699 90.2629C68.2618 89.9182 67.5585 89.9527 66.5598 90.3663C64.7541 91.1074 63.9943 91.8222 64.2806 92.5106C64.3893 92.743 64.5616 92.9398 64.7775 93.0781C65.0348 93.2688 65.2324 93.529 65.3473 93.8281C65.4404 94.0205 65.4868 94.2322 65.4826 94.4459C65.4784 94.6596 65.4237 94.8694 65.3231 95.0579C65.1326 95.4102 64.8248 95.6845 64.4533 95.8331C64.2471 95.9327 64.0214 95.9849 63.7925 95.9862C63.5636 95.9874 63.3373 95.9375 63.1301 95.8402C62.7458 95.6513 62.4457 95.3256 62.2886 94.9268C61.9254 94.0382 62.1407 93.0762 62.9342 92.041C63.7278 91.0058 65.0508 90.1083 66.9032 89.3485C68.393 88.7372 69.553 88.4632 70.3834 88.5265C71.2137 88.5899 71.8143 88.8425 72.1851 89.2843C72.6604 89.9162 73.0413 90.614 73.3158 91.3558L75.8371 97.4984C76.2048 98.3994 76.493 98.9391 76.7178 99.1058C76.8185 99.1886 76.9406 99.2411 77.0699 99.2572C77.1992 99.2732 77.3305 99.2523 77.4484 99.1967C77.8496 99.0322 78.1271 98.5996 78.2811 97.899L78.6818 97.7353C79.0556 99.4792 78.4437 100.683 76.8463 101.346C75.298 101.979 74.0105 101.467 72.9838 99.8091C72.4111 102.124 71.2522 103.639 69.5072 104.356C68.3462 104.832 67.2944 104.897 66.3516 104.55C65.9042 104.398 65.4952 104.15 65.1531 103.824C64.8111 103.498 64.5443 103.101 64.3712 102.661C63.2038 99.8198 65.357 97.1227 70.8308 94.5696ZM71.8832 97.1422L71.1453 95.3387C69.1184 96.2592 67.888 97.1248 67.4541 97.9356C67.0203 98.7463 67.0091 99.6634 67.4205 100.687C67.7255 101.432 68.1599 101.93 68.7236 102.181C68.973 102.304 69.2453 102.373 69.523 102.383C69.8007 102.394 70.0775 102.346 70.3355 102.243C70.988 101.976 71.5226 101.482 71.841 100.853C72.1555 100.317 72.3333 99.7121 72.3585 99.0912C72.3207 98.4179 72.1596 97.7572 71.8832 97.1422Z" fill="#311E69"/>
<path d="M81.2394 147.928L83.683 155.962L83.7288 155.948C83.9345 154.578 84.6867 153.69 85.9854 153.285C87.1046 152.944 88.2233 153.121 89.3414 153.815C90.4322 154.474 91.2363 155.519 91.5943 156.743C91.9709 157.964 91.898 159.281 91.3888 160.453C90.8779 161.693 90.0854 162.476 89.0113 162.804C87.7181 163.198 86.5317 162.799 85.4521 161.606L85.4083 161.619L85.999 163.562C85.2574 163.674 84.5263 163.848 83.8129 164.08L82.146 164.589L81.9689 164.007L83.5621 163.521L79.2559 149.364L77.6627 149.85L77.485 149.265L79.0782 148.779C79.8252 148.568 80.5492 148.283 81.2394 147.928ZM88.6951 162.251C89.4559 162.019 89.8288 161.575 89.8138 160.921C89.7989 160.266 89.5362 159.111 89.0257 157.457C88.5114 155.766 88.0863 154.678 87.7503 154.194C87.4153 153.708 86.8625 153.593 86.0858 153.83C85.5031 153.997 84.9984 154.366 84.6612 154.87C84.3321 155.34 84.1398 155.892 84.1059 156.465C84.0783 157.018 84.2564 157.923 84.6402 159.18C85.0138 160.408 85.5997 161.285 86.3977 161.81C87.1958 162.335 87.9616 162.482 88.6951 162.251Z" fill="#311E69"/>
<path d="M39.8216 137.313L40.1982 136.963C40.8089 137.974 41.0625 138.939 40.959 139.858C40.8578 140.779 40.4185 141.63 39.7265 142.245C39.2619 142.69 38.707 143.03 38.0996 143.242C37.4922 143.454 36.8464 143.532 36.2061 143.471C34.9214 143.409 33.7128 142.843 32.8412 141.896C31.9394 140.936 31.4554 139.656 31.4957 138.339C31.4934 137.672 31.6328 137.012 31.9046 136.403C32.1764 135.794 32.5745 135.25 33.0723 134.807C33.812 134.12 34.5903 133.747 35.4071 133.69C36.2212 133.633 36.8468 133.837 37.2785 134.304C37.4946 134.536 37.6173 134.84 37.623 135.158C37.631 135.32 37.6024 135.482 37.5394 135.631C37.4763 135.78 37.3803 135.914 37.2587 136.021C37.0328 136.242 36.7289 136.366 36.4126 136.366C36.2553 136.362 36.1004 136.326 35.9581 136.258C35.8158 136.191 35.6892 136.095 35.5865 135.975C35.4107 135.771 35.3117 135.511 35.3066 135.241C35.3165 135.048 35.2752 134.855 35.1869 134.683C35.0415 134.527 34.8054 134.488 34.4793 134.568C34.0987 134.681 33.7524 134.888 33.4718 135.169C32.867 135.733 32.5682 136.315 32.5754 136.916C32.5825 137.516 33.0768 138.345 34.0581 139.4C35.0368 140.457 35.788 141.212 36.3118 141.665C36.7389 142.072 37.2756 142.344 37.8555 142.447C38.3635 142.515 38.891 142.294 39.4382 141.784C40.5911 140.709 40.7189 139.218 39.8216 137.313Z" fill="#311E69"/>
<path d="M216.713 160.273L201.152 160.851L201.208 162.466L200.601 162.488L200.551 161.15C200.515 160.257 200.435 159.366 200.31 158.481L202.264 158.409L202.263 158.362C200.835 157.781 200.098 156.787 200.05 155.381C200.008 154.259 200.469 153.252 201.435 152.358C202.339 151.492 203.53 150.989 204.78 150.948C206.093 150.884 207.381 151.321 208.384 152.171C209.435 153.036 209.983 154.081 210.028 155.307C210.074 156.556 209.548 157.497 208.449 158.129L208.462 158.173L215.854 157.898L215.766 155.726L216.373 155.705L216.455 157.876C216.482 158.68 216.568 159.481 216.713 160.273ZM209.488 155.401C209.46 154.539 209.116 154.007 208.457 153.807C207.799 153.607 206.481 153.547 204.504 153.625C202.793 153.69 201.721 153.871 201.29 154.17C200.855 154.464 200.649 154.923 200.672 155.544C200.693 156.195 200.959 156.815 201.417 157.278C201.844 157.742 202.398 158.07 203.01 158.221C203.595 158.358 204.54 158.402 205.845 158.354C207.084 158.307 208.013 158.024 208.633 157.504C208.933 157.246 209.167 156.921 209.317 156.555C209.468 156.19 209.529 155.793 209.496 155.399L209.488 155.401Z" fill="#311E69"/>
<path d="M85.6788 120.195L79.6575 119.718C79.415 122.064 79.4309 123.521 79.7054 124.09C79.9799 124.658 80.5254 124.976 81.3421 125.042C83.024 125.177 84.2394 124.29 84.9881 122.382L85.5014 122.424C85.1453 123.586 84.58 124.42 83.8055 124.927C83.0682 125.421 82.185 125.651 81.3005 125.577C80.6771 125.532 80.0698 125.359 79.5162 125.068C78.9625 124.778 78.4744 124.377 78.082 123.89C77.2528 122.859 76.8467 121.551 76.946 120.231C77.0452 118.911 77.6425 117.678 78.6166 116.783C79.6163 115.905 80.7263 115.514 81.9466 115.61C82.4638 115.647 82.9686 115.785 83.4322 116.018C83.8958 116.25 84.309 116.572 84.6481 116.965C85.3851 117.78 85.7286 118.857 85.6788 120.195ZM79.7123 119.183L83.1737 119.458C83.2805 118.901 83.3463 118.473 83.3704 118.18C83.4716 116.91 82.9474 116.229 81.7978 116.137C81.3091 116.07 80.8135 116.196 80.4162 116.488C80.2388 116.636 80.0947 116.82 79.9936 117.028C79.8924 117.236 79.8366 117.463 79.8296 117.694L79.7123 119.183Z" fill="#311E69"/>
<path d="M103.542 167.845L105.029 149.123L100.491 148.764L100.602 147.369L105.139 147.727C105.375 142.875 106.674 139.144 109.037 136.535C111.399 133.926 114.054 132.738 117.004 132.971C118.345 133.049 119.619 133.588 120.609 134.497C121.591 135.4 122.036 136.436 121.943 137.605C121.905 138.354 121.578 139.059 121.031 139.572C120.771 139.82 120.46 140.009 120.119 140.125C119.778 140.241 119.417 140.281 119.059 140.243C118.432 140.194 117.85 139.897 117.442 139.418C117.226 139.178 117.063 138.895 116.964 138.587C116.865 138.279 116.832 137.954 116.868 137.632C116.952 136.556 117.624 135.71 118.883 135.093C118.376 134.557 117.594 134.247 116.537 134.164C115.499 134.087 114.462 134.331 113.566 134.863C112.605 135.411 111.975 136.302 111.676 137.536C111.377 138.771 111.116 140.775 110.894 143.549L110.523 148.153L115.609 148.563L115.498 149.958L110.412 149.549L108.925 168.271L113.519 168.637L113.408 170.032L99.3581 168.917L99.4689 167.521L103.542 167.845Z" fill="#311E69"/>
<path d="M118.872 230.627C119.063 231.275 119.045 231.967 118.821 232.604C118.672 233.047 118.408 233.441 118.055 233.746C117.702 234.051 117.274 234.256 116.815 234.338C115.851 234.532 115.126 234.535 114.641 234.348L114.104 234.176C113.857 234.081 113.534 233.934 113.128 233.731C112.723 233.527 112.506 233.424 112.477 233.413C112.117 233.307 111.735 233.308 111.377 233.417C110.916 233.525 110.631 233.721 110.525 234C110.476 234.107 110.457 234.225 110.469 234.343C110.481 234.46 110.524 234.572 110.593 234.667C110.732 234.866 111.18 235.112 111.938 235.405L115.582 236.651C115.924 236.769 116.239 236.956 116.506 237.2C116.773 237.445 116.986 237.743 117.133 238.074C117.419 238.733 117.391 239.505 117.049 240.39C116.858 240.893 116.553 241.346 116.158 241.712C115.763 242.078 115.289 242.348 114.773 242.5C113.651 242.877 112.342 242.776 110.843 242.196C109.679 241.746 108.847 241.156 108.346 240.425C107.846 239.695 107.716 239.014 107.958 238.382C108.081 238.024 108.331 237.723 108.659 237.534C108.977 237.355 109.599 237.195 110.524 237.053C109.47 236.322 109.134 235.456 109.516 234.453C110.035 233.108 111.054 232.627 112.572 233.011L112.588 232.969C111.674 232.003 111.424 230.983 111.838 229.91C111.996 229.488 112.248 229.107 112.575 228.797C112.901 228.486 113.294 228.255 113.724 228.119C114.63 227.794 115.624 227.814 116.516 228.176C116.998 228.348 117.438 228.619 117.81 228.972C118.181 229.324 118.476 229.749 118.675 230.221C119.449 229.715 120.145 229.581 120.762 229.82C120.997 229.907 121.187 230.084 121.292 230.312C121.349 230.43 121.379 230.559 121.382 230.691C121.384 230.822 121.358 230.952 121.306 231.072C121.269 231.183 121.21 231.284 121.131 231.37C121.052 231.455 120.957 231.523 120.85 231.569C120.664 231.651 120.453 231.658 120.262 231.589C120.136 231.545 120.026 231.464 119.946 231.358C119.866 231.251 119.818 231.124 119.81 230.991C119.776 230.694 119.713 230.53 119.622 230.494C119.447 230.41 119.197 230.454 118.872 230.627ZM111.135 237.274C110.741 237.343 110.372 237.518 110.069 237.781C109.765 238.043 109.538 238.382 109.412 238.762C108.91 240.066 109.548 241.062 111.326 241.752C112.461 242.19 113.501 242.286 114.446 242.04C115.391 241.794 116.002 241.313 116.279 240.596C116.361 240.398 116.388 240.181 116.357 239.969C116.326 239.757 116.239 239.557 116.103 239.39C115.815 239.013 115.426 238.725 114.98 238.561C114.799 238.492 114.38 238.354 113.726 238.15C113.072 237.946 112.59 237.786 112.276 237.675L111.135 237.274ZM116.276 228.676C115.596 228.414 115.109 228.424 114.816 228.705C114.523 228.986 114.222 229.54 113.909 230.337C113.458 231.502 113.243 232.281 113.264 232.676C113.286 233.07 113.653 233.406 114.368 233.684C115.095 233.965 115.599 233.962 115.888 233.673C116.177 233.385 116.564 232.578 117.079 231.244C117.4 230.42 117.475 229.834 117.304 229.487C117.13 229.15 116.795 228.877 116.276 228.676Z" fill="#311E69"/>
<path d="M93.17 190.954L94.5847 173.138L92.3505 172.948L92.4105 172.215L94.5648 172.386C95.5295 172.49 96.5023 172.495 97.468 172.4L96.6152 183.119L96.6711 183.124C97.7719 181.387 99.1841 180.587 100.908 180.725C101.621 180.785 102.307 181.025 102.903 181.424C103.199 181.602 103.455 181.841 103.654 182.124C103.852 182.408 103.989 182.73 104.056 183.07C104.188 183.756 104.196 184.837 104.081 186.313L103.649 191.762L105.5 191.91L105.442 192.642L98.9524 192.127L99.0104 191.394L100.862 191.542L101.31 185.84C101.418 184.736 101.463 183.626 101.444 182.516C101.41 181.853 101.005 181.488 100.229 181.429C99.8193 181.396 99.4072 181.46 99.0268 181.617C98.6463 181.774 98.3084 182.019 98.0405 182.332C97.4603 182.925 97.0228 183.642 96.7614 184.43C96.5348 185.159 96.3546 186.367 96.221 188.055L95.9748 191.181L97.828 191.328L97.7591 192.053L91.07 191.527L91.128 190.794L93.17 190.954Z" fill="#311E69"/>
<path d="M18.2826 120.026L24.1954 126.751L25.3696 125.717L25.7719 126.174L21.6056 129.842L21.2027 129.383L22.4577 128.279L17.0643 122.146L15.8098 123.252L15.4089 122.792L16.6808 121.672C17.2591 121.169 17.7948 120.618 18.2826 120.026ZM13.4474 118.161C13.334 118.034 13.248 117.886 13.1948 117.724C13.1415 117.563 13.1222 117.392 13.138 117.223C13.1483 117.053 13.192 116.886 13.2665 116.733C13.3411 116.58 13.445 116.444 13.5725 116.331C13.6999 116.218 13.8483 116.132 14.0091 116.076C14.17 116.021 14.3402 115.998 14.5099 116.009C14.6806 116.014 14.8483 116.055 15.0024 116.128C15.1564 116.202 15.2933 116.308 15.4042 116.438C15.5217 116.565 15.6114 116.716 15.6676 116.88C15.7239 117.044 15.7455 117.218 15.731 117.39C15.703 117.731 15.5441 118.047 15.2878 118.272C15.0316 118.497 14.698 118.614 14.3573 118.598C14.1836 118.593 14.013 118.551 13.8563 118.476C13.6996 118.4 13.5604 118.293 13.4474 118.161Z" fill="#311E69"/>
<path d="M184.974 141.029L178.608 146.824C177.689 147.699 176.673 148.466 175.58 149.111C174.763 149.579 173.833 149.811 172.892 149.783C171.97 149.751 171.243 149.443 170.713 148.859C170.343 148.477 170.115 147.979 170.067 147.448C170.037 147.233 170.058 147.013 170.13 146.808C170.201 146.602 170.32 146.417 170.477 146.266C170.577 146.173 170.695 146.102 170.824 146.057C170.953 146.012 171.089 145.994 171.225 146.006C171.366 146.014 171.503 146.051 171.629 146.114C171.755 146.177 171.867 146.265 171.959 146.372C172.139 146.553 172.24 146.798 172.24 147.053C172.244 147.156 172.226 147.259 172.188 147.354C172.15 147.45 172.093 147.537 172.02 147.609C171.873 147.719 171.705 147.798 171.526 147.84C171.366 147.874 171.215 147.938 171.079 148.029C170.926 148.169 170.947 148.348 171.146 148.566C171.52 148.977 171.997 149.052 172.573 148.784C173.149 148.517 174.138 147.756 175.534 146.484L182.836 139.838L181.392 138.246L181.842 137.836L183.269 139.409C183.786 140.001 184.356 140.544 184.974 141.029ZM186.703 136.096C186.957 135.869 187.29 135.751 187.63 135.767C187.97 135.783 188.29 135.932 188.522 136.181C188.638 136.306 188.727 136.453 188.785 136.612C188.842 136.772 188.868 136.942 188.86 137.111C188.857 137.282 188.819 137.451 188.747 137.607C188.676 137.762 188.573 137.901 188.444 138.014C188.319 138.133 188.171 138.226 188.008 138.285C187.846 138.345 187.673 138.37 187.5 138.358C187.33 138.35 187.163 138.307 187.01 138.233C186.857 138.159 186.72 138.055 186.607 137.927C186.492 137.801 186.403 137.654 186.346 137.493C186.288 137.332 186.263 137.162 186.272 136.991C186.281 136.821 186.324 136.654 186.398 136.5C186.472 136.346 186.575 136.209 186.703 136.096Z" fill="#311E69"/>
<path d="M23.9069 172.652L17.8869 159.136L16.3165 159.833L16.0669 159.277L17.5174 158.63C18.2639 158.293 18.9856 157.904 19.677 157.465L26.0286 171.7L27.4332 171.073L27.6807 171.63L22.5926 173.905L22.345 173.349L23.9069 172.652ZM29.8572 169.992L24.3872 167.37L26.4116 162.577L24.5799 163.395L24.3323 162.839L28.93 160.783L29.1796 161.339L27.1098 162.268L25.6883 165.587L32.517 168.812L33.4751 168.385L33.7227 168.941L28.5506 171.255L28.303 170.699L29.8572 169.992Z" fill="#311E69"/>
<path d="M143.455 131.685L158.784 111.575L156.465 109.803L157.097 108.976L159.317 110.672C160.809 111.815 161.957 112.563 162.762 112.918L146.617 134.1L148.902 135.846L148.282 136.671L140.517 130.74L141.149 129.911L143.455 131.685Z" fill="#311E69"/>
<path d="M133.436 98.368L134.084 90.2217L132.404 90.0803L132.452 89.473L133.498 89.5569C134.483 89.6484 135.472 89.6748 136.461 89.636L136.288 91.9308L136.337 91.9354C137.083 90.4527 138.262 89.775 139.873 89.9022C141.626 90.0402 142.529 90.9312 142.582 92.5754L142.629 92.5786C143.448 91.0068 144.658 90.2838 146.261 90.4094C146.901 90.4414 147.515 90.6801 148.009 91.0899C148.426 91.4159 148.712 91.8818 148.815 92.402C148.894 93.1783 148.891 93.961 148.804 94.7366L148.423 99.5488L150.075 99.6788L150.027 100.286L144.496 99.8488L144.544 99.2414L146.105 99.3625L146.563 93.492C146.637 92.5629 146.634 91.9195 146.555 91.5618C146.475 91.2041 146.201 91.0064 145.734 90.9688C145.092 90.9164 144.403 91.2288 143.667 91.9001C142.931 92.5713 142.484 93.9259 142.323 95.9579L142.076 99.0552L143.611 99.1776L143.563 99.7849L138.175 99.3565L138.223 98.7491L139.768 98.8725L140.134 94.2636C140.277 92.4681 140.296 91.3945 140.192 91.0427C140.086 90.6938 139.791 90.4962 139.3 90.4564C138.956 90.4342 138.612 90.4907 138.294 90.6214C137.976 90.7522 137.691 90.9538 137.462 91.211C136.972 91.6693 136.602 92.2408 136.384 92.8756C136.165 93.7524 136.032 94.6483 135.985 95.5509L135.747 98.5521L137.282 98.6745L137.233 99.2819L131.702 98.8425L131.751 98.2351L133.436 98.368Z" fill="#311E69"/>
<path d="M138.984 81.133L143.292 74.1904L141.852 73.2963L142.173 72.7778L143.096 73.3525C143.923 73.8743 144.785 74.3395 145.674 74.7449L144.447 76.7254L144.487 76.7502C146.043 75.7959 147.457 75.7134 148.727 76.5026C149.267 76.8079 149.685 77.291 149.909 77.8699C150.099 78.3684 150.138 78.9115 150.023 79.4323C149.905 79.9304 149.577 80.6116 149.039 81.4759L146.394 85.7385L147.975 86.7226L147.655 87.2385L142.751 84.1957L143.073 83.6792L144.416 84.5179L147.565 79.4435C148.053 78.6627 148.337 78.0945 148.418 77.7388C148.498 77.383 148.332 77.0763 147.92 76.8185C147.265 76.4098 146.466 76.3802 145.525 76.7298C144.584 77.0794 143.761 77.8215 143.055 78.9562L140.949 82.3486L142.288 83.1714L141.966 83.6879L137.232 80.7458L137.553 80.2273L138.984 81.133Z" fill="#311E69"/>
<path d="M118.663 217.229C118.703 216.578 118.874 215.942 119.165 215.359C119.456 214.775 119.862 214.257 120.358 213.834C120.848 213.399 121.423 213.07 122.047 212.869C122.67 212.668 123.329 212.599 123.981 212.666C124.624 212.702 125.252 212.869 125.83 213.155C126.407 213.441 126.921 213.84 127.34 214.33C127.767 214.814 128.089 215.381 128.285 215.997C128.482 216.612 128.549 217.261 128.481 217.904C128.441 218.576 128.264 219.234 127.96 219.836C127.657 220.438 127.234 220.971 126.717 221.403C126.23 221.84 125.66 222.173 125.04 222.38C124.42 222.588 123.765 222.665 123.114 222.609C122.476 222.564 121.853 222.388 121.286 222.092C120.718 221.796 120.217 221.387 119.814 220.89C119.384 220.39 119.061 219.807 118.863 219.178C118.665 218.549 118.597 217.886 118.663 217.229ZM125.8 217.795C125.917 216.335 125.945 215.366 125.882 214.89C125.838 214.444 125.635 214.03 125.31 213.722C124.92 213.394 124.43 213.209 123.921 213.198C123.419 213.137 122.911 213.247 122.479 213.509C122.098 213.755 121.824 214.137 121.715 214.577C121.591 215.04 121.47 216.002 121.354 217.461C121.238 218.92 121.214 219.897 121.284 220.391C121.336 220.845 121.554 221.263 121.896 221.566C122.271 221.88 122.739 222.06 123.227 222.08C123.72 222.138 124.217 222.032 124.644 221.778C125.037 221.531 125.322 221.141 125.438 220.691C125.561 220.216 125.681 219.251 125.8 217.795Z" fill="#311E69"/>
<path d="M115.635 183.523L113.82 190.437L115.691 190.928L115.519 191.586L109.845 190.105L110.017 189.447L111.572 189.844L115.2 175.949L113.491 175.503L113.645 174.913L114.95 175.254C115.832 175.489 116.728 175.669 117.632 175.795L117.156 177.622L117.202 177.635C118.184 176.49 119.34 176.092 120.671 176.441C121.763 176.727 122.605 177.431 123.196 178.554C123.783 179.642 123.926 180.917 123.594 182.108C123.276 183.401 122.464 184.517 121.334 185.217C120.174 185.954 119.04 186.178 117.932 185.888C116.772 185.584 116.015 184.798 115.663 183.53L115.635 183.523ZM120.959 181.709C121.234 180.748 121.446 179.77 121.592 178.782C121.657 178.354 121.561 177.917 121.324 177.556C121.113 177.257 120.803 177.043 120.45 176.951C120.115 176.848 119.762 176.82 119.416 176.867C119.069 176.915 118.737 177.038 118.442 177.228C117.93 177.537 117.495 177.96 117.171 178.463C116.827 179.114 116.571 179.806 116.409 180.524C116.19 181.272 116.059 182.043 116.02 182.822C116.026 183.402 116.236 183.962 116.612 184.404C116.991 184.894 117.522 185.244 118.122 185.399C118.398 185.489 118.694 185.494 118.972 185.414C119.25 185.334 119.498 185.172 119.683 184.949C120.099 184.475 120.527 183.393 120.966 181.705L120.959 181.709Z" fill="#311E69"/>
<path d="M95.4308 133.754L95.385 133.768C94.9443 135.01 94.1335 135.74 92.9524 135.96C91.8269 136.171 90.712 135.866 89.6078 135.045C88.5306 134.266 87.8016 133.095 87.5776 131.784C87.3315 130.571 87.5651 129.31 88.2292 128.266C88.8987 127.19 89.7914 126.548 90.9072 126.338C92.2612 126.086 93.3855 126.565 94.2803 127.776L94.3261 127.762L93.9794 125.906C94.8926 125.839 95.8014 125.722 96.7018 125.555L98.0281 125.307L98.1388 125.908L96.3993 126.22L99.0097 140.354L100.606 140.057L100.729 140.726L94.962 141.801L94.8366 141.131L96.7354 140.769L95.4308 133.754ZM94.8632 130.701C94.7541 129.971 94.5465 129.259 94.246 128.586C93.9566 128.061 93.5534 127.609 93.0662 127.261C92.787 127.052 92.4654 126.907 92.1241 126.835C91.7827 126.763 91.4298 126.767 91.0902 126.846C90.7202 126.912 90.3875 127.112 90.1555 127.408C89.8903 127.782 89.7746 128.242 89.8314 128.697C89.9179 129.658 90.0589 130.614 90.2539 131.56C90.5705 133.273 90.9171 134.377 91.2936 134.871C91.4598 135.106 91.693 135.285 91.9627 135.386C92.2324 135.486 92.5261 135.503 92.8055 135.433C93.4172 135.325 93.9748 135.014 94.3887 134.55C94.7924 134.135 95.0392 133.593 95.0866 133.016C95.1022 132.238 95.0272 131.461 94.8632 130.701Z" fill="#311E69"/>
<path d="M141.912 224.124L138.047 215.816L136.082 216.732L135.794 216.113L137.783 215.184C138.571 214.839 139.327 214.423 140.04 213.94L141.106 216.229L141.156 216.214C141.011 214.419 141.492 213.264 142.6 212.747C142.81 212.637 143.041 212.571 143.278 212.554C143.515 212.536 143.753 212.567 143.977 212.645C144.185 212.718 144.376 212.832 144.538 212.981C144.7 213.13 144.83 213.311 144.92 213.512C145.008 213.682 145.06 213.868 145.074 214.058C145.088 214.249 145.063 214.44 145 214.621C144.934 214.798 144.832 214.96 144.701 215.096C144.57 215.232 144.412 215.34 144.238 215.413C143.541 215.736 143.032 215.55 142.71 214.855L142.514 214.31C142.427 214.118 142.299 214.07 142.13 214.15C141.863 214.275 141.691 214.794 141.613 215.706C141.535 216.619 141.842 217.817 142.532 219.298L144.267 223.029L146.282 222.09L146.57 222.708L140.235 225.664L139.948 225.044L141.912 224.124Z" fill="#311E69"/>
<path d="M29.2513 94.4158L31.465 97.6866L30.8644 98.0877C29.1315 96.4926 27.3988 96.2817 25.6665 97.4552C24.9753 97.888 24.4545 98.5464 24.1921 99.3191C23.9538 100.046 24.0143 100.681 24.3529 101.179C24.4833 101.383 24.6639 101.551 24.8775 101.665C25.091 101.78 25.3304 101.838 25.5726 101.833C26.0944 101.841 27.0742 101.485 28.512 100.764C31.6651 99.153 34.0169 99.4916 35.5676 101.78C35.9385 102.297 36.2003 102.884 36.337 103.505C36.4736 104.127 36.4822 104.769 36.3623 105.394C36.2499 106.015 36.0109 106.606 35.6603 107.129C35.3096 107.653 34.8548 108.099 34.3243 108.439C33.2248 109.184 31.8557 109.453 30.2169 109.245L29.7887 110.814L29.2785 111.162L26.3578 106.847L26.8686 106.502C29.5664 108.693 31.9046 109.118 33.8832 107.776C34.6269 107.275 35.1765 106.534 35.4402 105.676C35.7314 104.782 35.6596 104.014 35.225 103.373C35.0831 103.131 34.8841 102.928 34.6456 102.781C34.4071 102.634 34.1363 102.548 33.8568 102.531C33.3065 102.505 32.15 102.92 30.3874 103.774C27.3851 105.228 25.193 104.938 23.8114 102.904C23.4806 102.436 23.2554 101.901 23.1514 101.337C23.0474 100.772 23.0671 100.192 23.2091 99.6364C23.4842 98.4645 24.2037 97.4456 25.2155 96.7953C25.7261 96.4297 26.3049 96.1707 26.9175 96.0336C27.5301 95.8966 28.1639 95.8842 28.7813 95.9973C28.8389 95.5717 28.8408 95.1404 28.7871 94.7143L29.2513 94.4158Z" fill="#311E69"/>
<path d="M185.12 112.298L182.778 114.928L185.506 117.365L184.984 117.96L182.256 115.523L177.167 121.233C176.421 122.071 175.966 122.693 175.803 123.101C175.639 123.508 175.8 123.927 176.286 124.359C176.676 124.698 177.165 124.903 177.68 124.942C178.31 124.984 178.937 124.828 179.474 124.495L179.97 124.937C178.286 126.113 176.553 125.901 174.771 124.302C174.018 123.63 173.587 122.999 173.478 122.411C173.356 121.866 173.443 121.295 173.722 120.811C174.109 120.192 174.554 119.611 175.051 119.077L180.014 113.505L177.964 111.675L178.486 111.08L180.536 112.912L182.706 110.479C183.455 111.156 184.263 111.765 185.12 112.298Z" fill="#311E69"/>
<path d="M43.545 180.624L46.9645 188.711L48.4468 188.082L48.6845 188.641L47.2001 189.271C46.0578 189.756 45.3548 190.106 45.091 190.322L44.2271 188.276L44.1812 188.289C44.1006 189.932 43.3535 191.054 41.94 191.653C41.1275 191.997 40.3833 192.059 39.7072 191.84C39.0311 191.62 38.4015 190.822 37.8184 189.444L35.7623 184.58L34.17 185.255L33.9324 184.696L37.6707 183.12L40.127 188.927C40.5129 189.838 40.8322 190.444 41.0891 190.745C41.346 191.046 41.7022 191.101 42.1576 190.909C42.8311 190.624 43.3009 189.998 43.5672 189.032C43.8334 188.067 43.6595 186.858 43.0454 185.407L41.6448 182.097L39.8861 182.841L39.6485 182.281L43.545 180.624Z" fill="#311E69"/>
<path d="M166.885 221.378L157.474 225.312L157.24 225.109L159.773 215.184L158.684 214.235L159.082 213.776L163.503 217.624L163.104 218.084L161.745 216.901L159.937 223.752L166.426 220.977L165.066 219.793L165.471 219.334L168.396 221.882L167.996 222.342L166.885 221.378Z" fill="#311E69"/>
<path d="M95.8975 228.975L95.1484 246.546L94.4509 246.778L86.0258 237.146L85.2391 249.828L84.5634 250.054L72.8624 236.627L70.2928 237.481L69.946 236.434L79.4816 233.268L79.8283 234.315L77.0608 235.233L84.6583 243.948L85.4491 231.286L86.1055 231.069L94.4822 240.685L94.9023 229.309L91.9374 230.294L91.5907 229.247L98.0499 227.1L98.3966 228.147L95.8975 228.975Z" fill="#311E69"/>
<path d="M131.955 115.903L134.338 125.461L135.936 126.244L135.52 127.094L127.714 123.267L128.13 122.417L130.312 123.495L128.752 117.192L122.506 119.668L125.135 120.956L124.721 121.805L118.582 118.795L118.998 117.945L121.527 119.184L128.542 116.404L126.353 107.416L124.473 106.495L124.889 105.645L132.989 109.617L132.573 110.467L130.361 109.382L131.724 115.067L137.383 112.82L134.828 111.575L135.242 110.725L141.268 113.681L140.854 114.53L138.373 113.313L131.955 115.903Z" fill="#311E69"/>
<path d="M170.313 84.7215L171.407 91.9815L176.241 86.7089L174.273 86.0497L174.465 85.4725L178.479 86.8061L178.288 87.3853L176.782 86.8793L168.763 95.6949C167.61 96.9573 166.708 97.8057 166.055 98.2402C165.778 98.4482 165.454 98.5863 165.112 98.6428C164.77 98.6993 164.42 98.6726 164.091 98.5649C163.911 98.5152 163.744 98.4258 163.603 98.3032C163.462 98.1807 163.351 98.028 163.277 97.8566C163.143 97.5425 163.129 97.1904 163.237 96.8665C163.277 96.729 163.346 96.6013 163.438 96.4915C163.53 96.3817 163.643 96.2921 163.772 96.2283C163.891 96.167 164.022 96.1306 164.156 96.1211C164.29 96.1117 164.424 96.1295 164.551 96.1734C164.729 96.2302 164.887 96.3349 165.008 96.4758C165.13 96.6167 165.21 96.7884 165.241 96.9721C165.33 97.3806 165.443 97.6077 165.578 97.6534C165.782 97.722 166.063 97.608 166.421 97.318C167.053 96.7521 167.65 96.148 168.208 95.509L169.5 94.0906L167.928 83.9149L166.581 83.4545L166.773 82.8773L172.216 84.7031L172.024 85.2803L170.313 84.7215Z" fill="#311E69"/>
<path d="M115.582 69.7072L115.876 65.9807L123.858 66.6138L123.818 67.1251L117.43 74.9875L119.058 75.1163C120.042 75.1951 120.836 75.0322 121.438 74.6277C122.04 74.2231 122.552 73.3269 122.973 71.9391L123.42 71.9771L123.112 75.9755L114.761 75.3137L114.809 74.7063L121.153 66.9423L119.524 66.8116C119.067 66.7675 118.606 66.7857 118.154 66.8656C117.698 66.9917 117.295 67.2622 117.005 67.6368C116.619 68.0725 116.303 68.7791 116.059 69.7493L115.582 69.7072Z" fill="#311E69"/>
</g>
<defs>
<linearGradient id="paint0_linear_3157_787" x1="212.956" y1="18.7326" x2="214.229" y2="-21.7111" gradientUnits="userSpaceOnUse">
<stop stop-color="#B890F9"/>
<stop offset="1" stop-color="white"/>
</linearGradient>
<linearGradient id="paint1_linear_3157_787" x1="210.487" y1="35.2474" x2="210.275" y2="-11.7602" gradientUnits="userSpaceOnUse">
<stop stop-color="#AC85FF"/>
<stop offset="1" stop-color="white"/>
</linearGradient>
<linearGradient id="paint2_linear_3157_787" x1="95.6417" y1="39.8686" x2="118.363" y2="-42.5454" gradientUnits="userSpaceOnUse">
<stop stop-color="#C285FF"/>
<stop offset="1" stop-color="white"/>
</linearGradient>
<linearGradient id="paint3_linear_3157_787" x1="20.9671" y1="72.892" x2="26.7605" y2="37.5431" gradientUnits="userSpaceOnUse">
<stop stop-color="#BB85FF"/>
<stop offset="0.39" stop-color="#C89CFF"/>
</linearGradient>
<linearGradient id="paint4_linear_3157_787" x1="398.265" y1="133.706" x2="407.376" y2="78.1244" gradientUnits="userSpaceOnUse">
<stop stop-color="#C297ED"/>
<stop offset="0.39" stop-color="#D2A6F5"/>
</linearGradient>
<clipPath id="clip0_3157_787">
<rect width="434" height="330" fill="white" transform="matrix(-1 0 0 1 434 0)"/>
</clipPath>
</defs>
</svg>
